<?xml version="1.0" encoding="iso-8859-1"?>
<!-- Generator: Adobe Illustrator 19.0.0, SVG Export Plug-In . SVG Version: 6.00 Build 0)  -->
<svg version="1.1" id="Layer_1" xmlns="http://www.w3.org/2000/svg" xmlns:xlink="http://www.w3.org/1999/xlink" x="0px" y="0px"
	 viewBox="0 0 512.001 512.001" style="enable-background:new 0 0 512.001 512.001;" xml:space="preserve">
<g>
	<path style="fill:#74B73E;" d="M506.606,152.464l-76.712-84.383c-3.928-4.317-9.498-6.788-15.342-6.788H18.026
		C8.068,61.293,0,69.362,0,79.319v264.095c0,9.949,8.068,18.017,18.026,18.017h26.112c0-29.246,23.711-52.965,52.966-52.965
		s52.966,23.72,52.966,52.965h211.862c0-29.246,23.711-52.965,52.966-52.965c29.255,0,52.966,23.72,52.966,52.965h26.112
		c9.957,0,18.026-8.068,18.026-18.017V166.421C512,161.257,510.076,156.287,506.606,152.464"/>
	<g>
		<path style="fill:#E0E0E0;" d="M394.759,202.537h117.239v-36.122c0-5.155-1.924-10.134-5.394-13.948l-50.776-55.861h-61.069
			c-3.505,0-6.347,2.842-6.347,6.347v93.237C388.412,199.695,391.255,202.537,394.759,202.537"/>
		<path style="fill:#E0E0E0;" d="M0.001,96.606v105.931h68.961c5.791,0,10.487-4.696,10.487-10.487v-84.957
			c0-5.791-4.696-10.487-10.487-10.487H0.001z"/>
		<path style="fill:#E0E0E0;" d="M256.001,109.019v81.108c0,6.85,5.561,12.412,12.412,12.412h63.453
			c6.85,0,12.412-5.561,12.412-12.412v-81.108c0-6.859-5.561-12.412-12.412-12.412h-63.453
			C261.562,96.607,256.001,102.16,256.001,109.019"/>
		<path style="fill:#E0E0E0;" d="M123.587,109.019v81.108c0,6.85,5.561,12.412,12.412,12.412h63.453
			c6.85,0,12.412-5.561,12.412-12.412v-81.108c0-6.859-5.561-12.412-12.412-12.412h-63.453
			C129.148,96.607,123.587,102.16,123.587,109.019"/>
	</g>
	<path style="fill:#494949;" d="M467.863,361.434c0,29.255-23.711,52.966-52.966,52.966s-52.966-23.711-52.966-52.966
		c0-29.255,23.711-52.966,52.966-52.966S467.863,332.179,467.863,361.434"/>
	<path style="fill:#A2A2A2;" d="M432.553,361.434c0,9.754-7.901,17.655-17.655,17.655s-17.655-7.901-17.655-17.655
		c0-9.754,7.901-17.655,17.655-17.655S432.553,351.679,432.553,361.434"/>
	<path style="fill:#494949;" d="M150.07,361.434c0,29.255-23.711,52.966-52.966,52.966s-52.966-23.711-52.966-52.966
		c0-29.255,23.711-52.966,52.966-52.966S150.07,332.179,150.07,361.434"/>
	<path style="fill:#A2A2A2;" d="M114.76,361.434c0,9.754-7.901,17.655-17.655,17.655s-17.655-7.901-17.655-17.655
		c0-9.754,7.901-17.655,17.655-17.655S114.76,351.679,114.76,361.434"/>
	<g>
		<path style="fill:#599922;" d="M512.001,255.503h-52.965c-4.882,0-8.828,3.946-8.828,8.828s3.946,8.828,8.828,8.828h52.965
			V255.503z"/>
		<path style="fill:#599922;" d="M282.484,229.02H0.001v17.655h282.483c4.873,0,8.828-3.946,8.828-8.828
			S287.356,229.02,282.484,229.02"/>
		<path style="fill:#599922;" d="M317.794,264.33H0.001v17.655h317.793c4.873,0,8.828-3.946,8.828-8.828
			S322.667,264.33,317.794,264.33"/>
	</g>
	<path style="fill:#48A0DC;" d="M468.257,362.412c-0.441-34.737-27.913-62.773-61.784-62.773c-22.669,0-42.425,12.588-53.186,31.311
		c-3.716-1.254-7.68-1.951-11.811-1.951c-18.202,0-33.404,13.18-37.146,30.755c-15.475,7.636-26.262,23.887-26.262,42.655
		c0,26.015,20.692,47.298,45.974,47.298h95.117c0.53,0,1.05-0.062,1.58-0.079c0.53,0.018,1.051,0.079,1.589,0.079h38.047
		c23.543,0,42.796-19.818,42.796-44.041C503.17,384.216,488.057,366.252,468.257,362.412"/>
	<path style="fill:none;stroke:#A2C9EC;stroke-width:2;stroke-linecap:round;" d="M468.257,362.412
		c-0.441-34.737-27.913-62.773-61.784-62.773c-22.669,0-42.425,12.588-53.186,31.311c-3.716-1.254-7.68-1.951-11.811-1.951
		c-18.202,0-33.404,13.18-37.146,30.755c-15.475,7.636-26.262,23.887-26.262,42.655c0,26.015,20.692,47.298,45.974,47.298h95.117
		c0.53,0,1.05-0.062,1.58-0.079c0.53,0.018,1.051,0.079,1.589,0.079h38.047c23.543,0,42.796-19.818,42.796-44.041
		C503.17,384.216,488.057,366.252,468.257,362.412L468.257,362.412z"/>
</g>
<g>
</g>
<g>
</g>
<g>
</g>
<g>
</g>
<g>
</g>
<g>
</g>
<g>
</g>
<g>
</g>
<g>
</g>
<g>
</g>
<g>
</g>
<g>
</g>
<g>
</g>
<g>
</g>
<g>
</g>
</svg>
