<?xml version="1.0" encoding="utf-8"?>
<!-- Generator: Adobe Illustrator 18.0.0, SVG Export Plug-In . SVG Version: 6.00 Build 0)  -->
<!DOCTYPE svg PUBLIC "-//W3C//DTD SVG 1.1//EN" "http://www.w3.org/Graphics/SVG/1.1/DTD/svg11.dtd">
<svg version="1.1" id="Layer_3" xmlns="http://www.w3.org/2000/svg" xmlns:xlink="http://www.w3.org/1999/xlink" x="0px" y="0px"
	 viewBox="0 0 841.9 595.3" enable-background="new 0 0 841.9 595.3" xml:space="preserve">
<g id="Ellipse_1_copy_2_2_">
	<g>
		<path fill="#7ADCF8" d="M518,138.3c-13.3,0-24.1,10.8-24.1,24.1c0,13.3,10.8,24.1,24.1,24.1c13.3,0,24.1-10.8,24.1-24.1
			C542.1,149.1,531.3,138.3,518,138.3z M585.4,205.8c-13.3,0-24.1,10.8-24.1,24.1s10.8,24.1,24.1,24.1s24.1-10.8,24.1-24.1
			S598.7,205.8,585.4,205.8z M652.9,269.5c-15.4,0-28,12.5-28,28s12.5,28,28,28s28-12.5,28-28S668.3,269.5,652.9,269.5z
			 M248.1,413.3c-10.7,0-19.3,8.6-19.3,19.3s8.6,19.3,19.3,19.3s19.3-8.6,19.3-19.3S258.8,413.3,248.1,413.3z M383,413.3
			c-10.6,0-19.3,8.6-19.3,19.3s8.6,19.3,19.3,19.3c10.6,0,19.3-8.6,19.3-19.3S393.7,413.3,383,413.3z M315.6,480.8
			c-10.7,0-19.3,8.6-19.3,19.3s8.6,19.3,19.3,19.3c10.7,0,19.3-8.6,19.3-19.3S326.3,480.8,315.6,480.8z M180.7,480.8
			c-10.6,0-19.3,8.6-19.3,19.3s8.6,19.3,19.3,19.3s19.3-8.6,19.3-19.3S191.3,480.8,180.7,480.8z M450.5,480.8
			c-10.7,0-19.3,8.6-19.3,19.3s8.6,19.3,19.3,19.3s19.3-8.6,19.3-19.3S461.2,480.8,450.5,480.8z M315.6,345.7
			c-10.7,0-19.3,8.6-19.3,19.3s8.6,19.3,19.3,19.3c10.7,0,19.3-8.6,19.3-19.3S326.3,345.7,315.6,345.7z M450.7,74.3
			c-11.2,0-20.3,9.2-20.3,20.5s9.1,20.5,20.3,20.5c11.2,0,20.3-9.2,20.3-20.5S461.9,74.3,450.7,74.3z"/>
	</g>
</g>
<g id="Color_Fill_2_2_">
	<g>
		<path fill="#0D4968" d="M315.6,205.8c-13.3,0-24.1,10.8-24.1,24.1c0,13.3,10.8,24.1,24.1,24.1c13.3,0,24.1-10.8,24.1-24.1
			C339.7,216.6,328.9,205.8,315.6,205.8z M450.5,337.3c-15.3,0-27.7,12.4-27.7,27.7s12.4,27.7,27.7,27.7s27.7-12.4,27.7-27.7
			S465.8,337.3,450.5,337.3z M518.1,401.8c-17,0-30.9,13.8-30.9,30.9c0,17.1,13.8,30.9,30.9,30.9s30.9-13.8,30.9-30.9
			C549,415.6,535.2,401.8,518.1,401.8z M383.1,272.7c-13.6,0-24.7,11.1-24.7,24.7s11.1,24.7,24.7,24.7c13.6,0,24.7-11.1,24.7-24.7
			S396.7,272.7,383.1,272.7z M248.1,142c-11.2,0-20.3,9.1-20.3,20.4s9.1,20.4,20.3,20.4c11.2,0,20.3-9.1,20.3-20.4
			S259.4,142,248.1,142z M180.7,74.5c-11.2,0-20.3,9.1-20.3,20.4s9.1,20.4,20.3,20.4s20.3-9.1,20.3-20.4S191.9,74.5,180.7,74.5z"/>
	</g>
</g>
<g id="Color_Fill_1_2_">
	<g>
		<path fill="#1C90B1" d="M450.5,204.9c-13.8,0-25,11.2-25,25c0,13.8,11.2,25,25,25s25-11.2,25-25
			C475.5,216.1,464.3,204.9,450.5,204.9z M586.8,334.6c-16.2,0-29.3,13.1-29.3,29.3s13.1,29.3,29.3,29.3c16.2,0,29.3-13.1,29.3-29.3
			S603,334.6,586.8,334.6z M518.3,271.5c-13.6,0-24.7,11.1-24.7,24.7c0,13.7,11.1,24.7,24.7,24.7s24.7-11.1,24.7-24.7
			C543,282.6,531.9,271.5,518.3,271.5z M315.7,74.6c-11.2,0-20.3,9.1-20.3,20.4s9.1,20.4,20.3,20.4s20.3-9.1,20.3-20.4
			S327,74.6,315.7,74.6z M383.1,141.1c-11.8,0-21.3,9.5-21.3,21.3c0,11.8,9.5,21.3,21.3,21.3c11.8,0,21.3-9.5,21.3-21.3
			C404.3,150.6,394.8,141.1,383.1,141.1z"/>
	</g>
</g>
</svg>
